PathFileType	4	(X/Y/Z)	./resultDataOpenSim/trcMotMarkerGrf/sub09/qtm-12-02.trc
DataRate	CameraRate	NumFrames	NumMarkers	Units	OrigDataRate	OrigDataStartFrame	OrigNumFrames
250.000000	250.000000	13	24	m	250.000000	121	482
Frame#	Time	L.Toe.Tip			R.Toe.Tip			L.Ankle.Lat			R.Ankle.Lat			L.Ankle.Med			R.Ankle.Med			L.Heel			R.Heel			L.Knee.Lat			R.Knee.Lat			L.Knee.Med			R.Knee.Med			L.Thigh.Upper			R.Thigh.Upper			L.ASIS			R.ASIS			V.Sacral			L.Acromium			R.Acromium			C7			L.Elbow			R.Elbow			L.Wrist.Lat			R.Wrist.Lat
		X1	Y1	Z1	X2	Y2	Z2	X3	Y3	Z3	X4	Y4	Z4	X5	Y5	Z5	X6	Y6	Z6	X7	Y7	Z7	X8	Y8	Z8	X9	Y9	Z9	X10	Y10	Z10	X11	Y11	Z11	X12	Y12	Z12	X13	Y13	Z13	X14	Y14	Z14	X15	Y15	Z15	X16	Y16	Z16	X17	Y17	Z17	X18	Y18	Z18	X19	Y19	Z19	X20	Y20	Z20	X21	Y21	Z21	X22	Y22	Z22	X23	Y23	Z23	X24	Y24	Z24

121	0.48	-0.22221118	0.087784186	-0.042460729	-0.62574204	0.038603621	0.06713297	-0.37417938	0.095515883	-0.071781701	-0.77429347	0.056179636	0.096179478	-0.35125205	0.11749423	0.022836999	-0.75705632	0.097691441	0.0072663754	-0.43217345	0.044310116	-0.018989861	-0.84155916	0.035151351	0.044807603	-0.40001716	0.51398687	-0.1060985	-0.64988778	0.49729905	0.16390263	-0.40054504	0.50999305	0.018670439	-0.66744246	0.49055325	0.035911815	-0.59052529	0.8897298	-0.14798259	-0.62346097	0.90342078	0.22397163	-0.51956716	0.97564677	-0.084384367	-0.5172431	0.98255622	0.15507881	-0.68748433	1.0360819	0.026845462	-0.51199716	1.4295015	-0.13668366	-0.52691677	1.4432403	0.19225308	-0.58418325	1.4879579	0.028385801	-0.68487792	1.1043252	-0.19552504	-0.66345647	1.1030318	0.28953029	-0.56577626	0.86762723	-0.22015127	-0.47153247	0.90265329	0.30012482
122	0.484	-0.20301171	0.091080389	-0.041129953	-0.62571505	0.038600196	0.067259332	-0.35524141	0.094826469	-0.070956163	-0.77479621	0.056990325	0.095998843	-0.33299036	0.1179364	0.023822958	-0.75682699	0.097714492	0.0071582676	-0.4119222	0.042405237	-0.018159446	-0.84155264	0.035278832	0.044521946	-0.39338925	0.51226725	-0.10642799	-0.64803127	0.49685955	0.16420156	-0.39385657	0.50839313	0.018488298	-0.66537049	0.49018242	0.036084201	-0.58404149	0.88805951	-0.14801384	-0.61793528	0.90265521	0.22392184	-0.51276786	0.97409035	-0.084261109	-0.51114051	0.9814581	0.15523347	-0.6815781	1.0349092	0.026582872	-0.50589274	1.4283323	-0.13677062	-0.52081971	1.4421035	0.19219085	-0.57815792	1.4867332	0.028298242	-0.67875015	1.1033231	-0.19536734	-0.65686275	1.1016783	0.28968688	-0.56031837	0.86637311	-0.22035259	-0.46400711	0.90212286	0.29989557
123	0.488	-0.18416733	0.094578454	-0.039674688	-0.62568394	0.038629985	0.067408889	-0.33657586	0.094415196	-0.070107718	-0.77540899	0.057940437	0.095793261	-0.31501256	0.11865448	0.024741987	-0.75658734	0.097736107	0.0070278581	-0.39193563	0.040823961	-0.017312898	-0.84154132	0.03540899	0.044213236	-0.38690766	0.51049588	-0.10680884	-0.6461152	0.49642355	0.16451207	-0.38708725	0.50666889	0.018493582	-0.66329621	0.48978608	0.036270046	-0.57744947	0.88632741	-0.14799541	-0.61241373	0.90184959	0.22386116	-0.50596317	0.97247334	-0.084109213	-0.50501952	0.980306	0.15539479	-0.67567612	1.0337353	0.026321726	-0.49980086	1.4271275	-0.13688489	-0.51474292	1.4409176	0.19212418	-0.57212866	1.4854504	0.028190843	-0.67257838	1.1022275	-0.19523002	-0.65024505	1.1002548	0.28981251	-0.55481991	0.86506032	-0.22057516	-0.45652584	0.90150897	0.29968216
124	0.492	-0.16572269	0.098222126	-0.03816898	-0.62566168	0.03867209	0.067540436	-0.31826203	0.094275153	-0.069295303	-0.77583416	0.058616234	0.095579122	-0.29741305	0.11954953	0.025509746	-0.75635386	0.097758209	0.0068713186	-0.37225866	0.039549983	-0.016485163	-0.84152446	0.035539621	0.043893091	-0.38042058	0.50868468	-0.10717982	-0.64411678	0.49598417	0.16482604	-0.3803277	0.50479055	0.018642144	-0.66114282	0.48937058	0.036459903	-0.57072707	0.8845357	-0.14791626	-0.60689403	0.90099239	0.22378591	-0.49915549	0.9708092	-0.083927825	-0.49888861	0.97910069	0.15556652	-0.66981129	1.0325675	0.026060688	-0.49372954	1.4258814	-0.13701534	-0.50869321	1.4396875	0.19205863	-0.56609158	1.4841113	0.028066222	-0.66654142	1.101054	-0.19521117	-0.64360313	1.0987612	0.28990898	-0.54933258	0.86369437	-0.22081976	-0.44908113	0.90080708	0.29948626
125	0.496	-0.14772078	0.10195756	-0.036688571	-0.62567063	0.038678064	0.06760956	-0.30034531	0.094372511	-0.068555014	-0.77584962	0.058766008	0.095380921	-0.28022702	0.12056485	0.026139468	-0.75614087	0.097782583	0.0066916772	-0.35293443	0.03856267	-0.015730813	-0.84150525	0.035678446	0.04357512	-0.37382367	0.50683203	-0.10746302	-0.64200957	0.49552243	0.1651227	-0.37372304	0.50272507	0.01881167	-0.65875676	0.48893736	0.036679083	-0.5639229	0.88268234	-0.14777354	-0.60137919	0.90007156	0.22369634	-0.49234883	0.96910393	-0.083720935	-0.4927527	0.97784377	0.15575227	-0.66402288	1.0314163	0.025788522	-0.48768006	1.4245839	-0.13714766	-0.50266819	1.4384122	0.19199573	-0.56004156	1.4827142	0.027925271	-0.66063092	1.0998135	-0.19532855	-0.63693458	1.0971988	0.28997848	-0.54386429	0.86227248	-0.22108136	-0.4416649	0.90001694	0.29930848
126	0.5	-0.13018869	0.10573791	-0.035266825	-0.62571157	0.038626033	0.067633014	-0.28281482	0.094674552	-0.067890175	-0.77544578	0.058438422	0.095219411	-0.26345809	0.12168414	0.026686791	-0.7559405	0.097811447	0.0065035046	-0.33400892	0.037845058	-0.015102949	-0.84148642	0.035841365	0.043271148	-0.36706995	0.50492653	-0.10759281	-0.63976903	0.49501828	0.16539214	-0.36726145	0.50049363	0.018959215	-0.65602163	0.4884942	0.036975689	-0.55709406	0.88076323	-0.14757678	-0.59586767	0.89908485	0.2235911	-0.48555054	0.96735899	-0.083498162	-0.48660782	0.97653411	0.15594789	-0.65829342	1.0302845	0.025487293	-0.4816559	1.4232324	-0.13727946	-0.49664933	1.4370847	0.19193082	-0.55397941	1.4812629	0.027769899	-0.65472122	1.0985065	-0.19551446	-0.63023855	1.0955702	0.29002467	-0.53837321	0.86079534	-0.22134849	-0.43427471	0.89914273	0.29915009
127	0.504	-0.11313463	0.10952012	-0.033886801	-0.62575785	0.038544745	0.067673991	-0.26564125	0.095176506	-0.067293747	-0.77485444	0.057935439	0.095097116	-0.24712769	0.12289016	0.027173182	-0.75572801	0.097850707	0.0063259656	-0.31553294	0.037382735	-0.01463902	-0.84146197	0.036041588	0.042982622	-0.36013998	0.50297131	-0.10753938	-0.63737727	0.49447048	0.16563793	-0.36076144	0.49817789	0.019156349	-0.65299365	0.4880469	0.037362902	-0.55022929	0.87877715	-0.14734536	-0.59034578	0.89803549	0.2234664	-0.47876229	0.96557871	-0.083273753	-0.48044024	0.97517357	0.1561417	-0.65242124	1.0291385	0.025154963	-0.47563393	1.4218229	-0.13741594	-0.49061859	1.4357007	0.19186416	-0.54791836	1.4797716	0.027607066	-0.6487311	1.0971316	-0.195706	-0.62351982	1.0938822	0.29005354	-0.53281317	0.85927472	-0.2216059	-0.4269112	0.89818716	0.29900847
128	0.508	-0.09656917	0.11326011	-0.032522314	-0.62578802	0.038472308	0.067766089	-0.24883134	0.095879273	-0.066770216	-0.7743887	0.057606451	0.095001878	-0.2312647	0.12415195	0.027585618	-0.75548952	0.097908613	0.0061683239	-0.29756765	0.037142651	-0.014354775	-0.84142037	0.036287608	0.0426994	-0.35307409	0.50100586	-0.10733988	-0.63482808	0.4938929	0.16586152	-0.35406515	0.49587461	0.019479933	-0.64987604	0.48758663	0.037775014	-0.54325248	0.8767336	-0.14710057	-0.58479242	0.89692124	0.22331468	-0.47197633	0.96377208	-0.083060048	-0.47423497	0.97376901	0.15632247	-0.64593747	1.0278787	0.024856255	-0.46954503	1.4203457	-0.13756321	-0.48458444	1.4342665	0.19179821	-0.54187204	1.4782624	0.027444777	-0.64265806	1.0956929	-0.19588952	-0.61678218	1.0921434	0.29006633	-0.52716651	0.85771514	-0.22184078	-0.41957813	0.89715401	0.2988788
129	0.512	-0.080524273	0.11690672	-0.031174824	-0.62580566	0.03842519	0.067897383	-0.23245018	0.096749623	-0.066344717	-0.7741727	0.05757073	0.09492273	-0.21588394	0.12543274	0.027903667	-0.75522861	0.097989585	0.0060291659	-0.28016666	0.037064808	-0.014258148	-0.84135556	0.036585155	0.042408036	-0.34596037	0.49908506	-0.10707335	-0.63212765	0.49328829	0.16605235	-0.3471798	0.49365898	0.01992313	-0.64680883	0.48710145	0.03812663	-0.53609981	0.87464981	-0.14686282	-0.57919273	0.89573779	0.22312802	-0.465185	0.96195034	-0.082861241	-0.46798311	0.97232793	0.15648309	-0.63839297	1.0263723	0.024770469	-0.46333304	1.4187976	-0.13772823	-0.47856298	1.432792	0.19172967	-0.53583108	1.4767381	0.027280429	-0.63652704	1.0941966	-0.19607999	-0.61002716	1.0903598	0.29005679	-0.52144884	0.8560995	-0.22205051	-0.412282	0.89605127	0.298759
130	0.516	-0.065036014	0.12040356	-0.029854061	-0.62582951	0.038405787	0.068049549	-0.21658224	0.097724801	-0.066042845	-0.77412107	0.057722142	0.094854652	-0.20098319	0.1266981	0.028134992	-0.75494846	0.098092415	0.0059049983	-0.26334453	0.037084696	-0.014379819	-0.84127079	0.036931938	0.04210195	-0.33884514	0.49724087	-0.10678726	-0.62926541	0.49264925	0.16620964	-0.34022713	0.49156828	0.020421903	-0.64374906	0.48658849	0.0383976	-0.52882886	0.87253562	-0.1466508	-0.57354111	0.89448584	0.22290768	-0.45838988	0.96012139	-0.082678344	-0.46168222	0.97085099	0.15662147	-0.63001966	1.0245758	0.025098201	-0.4570313	1.4171831	-0.13790746	-0.47254562	1.4312826	0.19165273	-0.52976714	1.4751668	0.027100663	-0.63035561	1.0926447	-0.19629491	-0.60325891	1.0885357	0.29001813	-0.51569045	0.85440682	-0.22224371	-0.40502376	0.89488435	0.29864844
131	0.52	-0.050119111	0.12369926	-0.028545491	-0.62587351	0.038409391	0.068213324	-0.2012651	0.098757079	-0.065862346	-0.77411643	0.05793591	0.09478966	-0.18657347	0.12790736	0.028331678	-0.75464126	0.098214312	0.0057924585	-0.24710791	0.037155796	-0.014762611	-0.84117539	0.037315769	0.041781723	-0.33170766	0.49547848	-0.10648197	-0.62615407	0.49198685	0.16636602	-0.33329858	0.4895995	0.020938095	-0.64058227	0.48604393	0.038611451	-0.52160329	0.87039119	-0.14647948	-0.56783276	0.89316742	0.22266544	-0.45160233	0.95828414	-0.082514867	-0.45534073	0.9693263	0.15674115	-0.62177891	1.0225775	0.025784197	-0.45073119	1.415508	-0.13808461	-0.46651572	1.4297389	0.19156303	-0.52366299	1.4735156	0.026893835	-0.6241506	1.0910352	-0.1965419	-0.59647932	1.0866733	0.28994709	-0.50991557	0.85263414	-0.22243555	-0.39779314	0.89364971	0.29854613
132	0.524	-0.035778896	0.1267488	-0.027225102	-0.62592844	0.03842034	0.068374793	-0.18648536	0.099833313	-0.065772998	-0.77409823	0.058156598	0.094713563	-0.17271824	0.12899993	0.028534523	-0.75429412	0.09835317	0.0056865073	-0.23151489	0.037257617	-0.015391663	-0.84107777	0.037725872	0.041445683	-0.32451363	0.49379396	-0.10615301	-0.6226851	0.49132123	0.16654574	-0.32640124	0.48772915	0.021475362	-0.63726236	0.48545053	0.038771995	-0.51452334	0.86822161	-0.14635821	-0.56206175	0.89178262	0.22241575	-0.44483397	0.95643455	-0.082374704	-0.44898551	0.96773697	0.15684643	-0.61432048	1.0204331	0.026406336	-0.44447807	1.4137793	-0.13825096	-0.4604711	1.4281583	0.19145903	-0.51752256	1.4717837	0.02665521	-0.61791435	1.0893678	-0.19681881	-0.58968278	1.0847726	0.28984199	-0.50413292	0.85079408	-0.22263943	-0.39057692	0.89234099	0.29844949
133	0.528	-0.022038662	0.12950913	-0.025900273	-0.62596623	0.038417582	0.068511616	-0.17224696	0.10093344	-0.065729165	-0.77405074	0.058377147	0.094612379	-0.1594952	0.12991961	0.028728228	-0.75389933	0.09850642	0.00557489	-0.21664569	0.037373707	-0.016123224	-0.8409772	0.038166418	0.04108674	-0.31724176	0.49218569	-0.10581524	-0.61891289	0.49063062	0.16670182	-0.31949861	0.48593684	0.022030959	-0.63381165	0.4847833	0.038869203	-0.50755573	0.86604034	-0.14628617	-0.55621953	0.89033021	0.22216909	-0.43808185	0.95457661	-0.082262575	-0.44265735	0.96607388	0.15693792	-0.60733478	1.0180544	0.026443866	-0.43824689	1.4120069	-0.13841205	-0.45441281	1.4265399	0.19134006	-0.51135391	1.4699906	0.026385586	-0.61164803	1.0876452	-0.19712103	-0.58286566	1.082836	0.28970329	-0.49833008	0.84890171	-0.22286147	-0.38337104	0.89095943	0.29835165
